{"title":"The Bank Job-AC3-5,1-DVDRiP[ENG]2008 ACB-Team","uid":5586383,"size":1068235850,"categoryP":"video","categoryS":"movies","magnet":"?xt=urn:btih:a6229a3e10160d53bd7035ab40eac29a28a0127d&amp;dn=The+Bank+Job-AC3-5%2C1-DVDRiP%5BENG%5D2008+ACB-Team&amp;tr=udp%3A%2F%2Ftracker.openbittorrent.com%3A80&amp;tr=udp%3A%2F%2Fopen.demonii.com%3A1337&amp;tr=udp%3A%2F%2Ftracker.coppersurfer.tk%3A6969&amp;tr=udp%3A%2F%2Fexodus.desync.com%3A6969","seeders":1,"leechers":0,"uploader":"ACB-Team.nl","files":-1,"time":1274711576,"description":"General\nComplete name                    : The Bank Job-AC3-5,1-DVDRiP[ENG]2008 ACB-Team.avi\nFormat                           : AVI\nFormat/Info                      : Audio Video Interleave\nFile size                        : 1 019 MiB\nDuration                         : 1h 47mn\nOverall bit rate                 : 1 330 Kbps\n\nVideo\nID                               : 0\nFormat                           : MPEG-4 Visual\nFormat profile                   : Simple@L3\nFormat settings, BVOP            : No\nFormat settings, QPel            : No\nFormat settings, GMC             : No warppoints\nFormat settings, Matrix          : Default (H.263)\nCodec ID                         : XVID\nCodec ID/Hint                    : XviD\nDuration                         : 1h 47mn\nBit rate                         : 1 190 Kbps\nWidth                            : 640 pixels\nHeight                           : 360 pixels\nDisplay aspect ratio             : 16:9\nFrame rate                       : 25.000 fps\nColor space                      : YUV\nChroma subsampling               : 4:2:0\nBit depth                        : 8 bits\nScan type                        : Progressive\nBits/(Pixel*Frame)               : 0.207\nStream size                      : 911 MiB (89%)\nWriting library                  : Magic0432\n\nAudio\nID                               : 1\nFormat                           : MPEG Audio\nFormat version                   : Version 1\nFormat profile                   : Layer 3\nMode                             : Joint stereo\nMode extension                   : MS Stereo\nCodec ID                         : 55\nCodec ID/Hint                    : MP3\nDuration                         : 1h 47mn\nBit rate mode                    : Constant\nBit rate                         : 128 Kbps\nChannel(s)                       : 6 channels\nSampling rate                    : 44.1 KHz\nStream size                      : 98.0 MiB (10%)\nAlignment                        : Aligned on interleaves\nInterleave, duration             : 26 ms (0.65 video frame)\n\nVoor meer films met nederlandse ondertiteling kijk : www.acb-team.nl\n\nIf you like the movie please comment\n\n!! Dont hit and run please seed !!\n","torrent":{"xt":"urn:btih:a6229a3e10160d53bd7035ab40eac29a28a0127d","amp;dn":"The+Bank+Job-AC3-5%2C1-DVDRiP%5BENG%5D2008+ACB-Team","amp;tr":["udp%3A%2F%2Ftracker.openbittorrent.com%3A80","udp%3A%2F%2Fopen.demonii.com%3A1337","udp%3A%2F%2Ftracker.coppersurfer.tk%3A6969","udp%3A%2F%2Fexodus.desync.com%3A6969"],"infoHash":"a6229a3e10160d53bd7035ab40eac29a28a0127d","infoHashBuffer":{"type":"Buffer","data":[166,34,154,62,16,22,13,83,189,112,53,171,64,234,194,154,40,160,18,125]},"announce":[],"urlList":[]}}